# xmcd
#
# Track frame offsets: 
#        150
#        18507
#        40317
#        58017
#        77495
#        98304
#        117632
#        135375
#        148842
#        167165
#        183017
#        202045
#        222050
#        245425
#
# Disc length: 3460 seconds
#
# Revision: 6
# Processed by: cddbd v1.5.2PL0 Copyright (c) Steve Scherf et al.
# Submitted via: ExactAudioCopy v1.0b3
#
DISCID=bd0d820e
DTITLE=Various Artist - História de Amor - Internacional
DYEAR=1900
DGENRE=
TTITLE0=Des'ree - You gotta be
TTITLE1=Sheryl Crow - Run, baby, run
TTITLE2=La Bouche - Fallin' in love
TTITLE3=Tina Arena - Chains
TTITLE4=10 CC - Ready to go home
TTITLE5=Haddaway - The first cut is the deepest
TTITLE6=Gloria Estefan - It's too late
TTITLE7=Faith no more - I strarted a joke
TTITLE8=Van Halen - Can't stop love you
TTITLE9=The beautiful soul - Dream a little dream
TTITLE10=Hooties and The blowfish - Hold my hand
TTITLE11=Sect - Follow you
TTITLE12=Malcon Mclaren - Paris lutece paname
TTITLE13=Martin Axell - The place I belong
EXTD=
EXTT0=
EXTT1=
EXTT2=
EXTT3=
EXTT4=
EXTT5=
EXTT6=
EXTT7=
EXTT8=
EXTT9=
EXTT10=
EXTT11=
EXTT12=
EXTT13=
PLAYORDER=
